<svg width="19" height="12" viewBox="0 0 19 12" version="1.1" xmlns="http://www.w3.org/2000/svg" xmlns:xlink="http://www.w3.org/1999/xlink">
<title>eye</title>
<desc>Created using Figma</desc>
<g id="Canvas" transform="translate(235 -160)">
<g id="eye">
<g id="Group">
<g id="Vector">
<use xlink:href="#path0_fill" transform="translate(-235 160)" fill="#94468B"/>
</g>
</g>
</g>
</g>
<defs>
<path id="path0_fill" d="M 9.5 -6.28365e-08C 5.86985 -6.28365e-08 2.57784 2.10432 0.148665 5.52231C -0.0495551 5.80233 -0.0495551 6.19355 0.148665 6.47358C 2.57784 9.89568 5.86985 12 9.5 12C 13.1302 12 16.4222 9.89568 18.8513 6.47769C 19.0496 6.19767 19.0496 5.80645 18.8513 5.52642C 16.4222 2.10432 13.1302 -6.28365e-08 9.5 -6.28365e-08ZM 9.76041 10.2251C 7.35067 10.3857 5.36069 8.2814 5.51227 5.72409C 5.63665 3.61565 7.24962 1.90666 9.23959 1.77488C 11.6493 1.61428 13.6393 3.7186 13.4877 6.27591C 13.3595 8.38023 11.7465 10.0892 9.76041 10.2251ZM 9.63992 8.27316C 8.34177 8.35964 7.26905 7.22718 7.35456 5.85175C 7.42063 4.71517 8.29124 3.79684 9.36397 3.72272C 10.6621 3.63624 11.7348 4.7687 11.6493 6.14413C 11.5794 7.28483 10.7088 8.20316 9.63992 8.27316Z"/>
</defs>
</svg>
